<?xml version="1.0" encoding="utf-8"?>
<!-- Generator: Adobe Illustrator 28.1.0, SVG Export Plug-In . SVG Version: 6.00 Build 0)  -->
<svg version="1.1" id="Layer_1" xmlns="http://www.w3.org/2000/svg" xmlns:xlink="http://www.w3.org/1999/xlink" x="0px" y="0px"
	 viewBox="0 0 360.6 373" style="enable-background:new 0 0 360.6 373;" xml:space="preserve">
<style type="text/css">
	.st0{fill:#231F20;}
</style>
<g>
	<path class="st0" d="M312.2,13H48.4C28.5,13,12.3,31.8,12.3,55v172.9c0,23.2,16.2,42.1,36.1,42.1h263.7c19.9,0,36.1-18.9,36.1-42.1
		V55C348.3,31.8,332.1,13,312.2,13z M328.6,227.9c0,10.3-7.3,18.7-16.4,18.7H48.4c-9,0-16.4-8.4-16.4-18.7V55
		c0-10.3,7.3-18.7,16.4-18.7h263.7c9,0,16.4,8.4,16.4,18.7V227.9z"/>
	<g>
		<g>
			<path d="M85.1,148.9c-17.8,1.9-31.7,19.6-31.7,41.1c0,20.6,12.7,21.6,29.3,21.6c1.8,0,3.7,0,5.6,0h36c1.9,0,3.8,0,5.6,0
				c16.6,0,29.3-1,29.3-21.6c0-21.5-13.9-39.2-31.7-41.1"/>
			<path d="M136.4,107.1c0,19.7-13.5,35.7-30.2,35.7c-16.7,0-30.2-16-30.2-35.7c0-19.7,13.5-35.7,30.2-35.7
				C122.9,71.4,136.4,87.4,136.4,107.1z"/>
		</g>
		<g>
			<path class="st0" d="M298.4,86.6H185.9c-4.9,0-8.9,4.7-8.9,10.5c0,5.8,4,10.5,8.9,10.5h112.5c4.9,0,8.9-4.7,8.9-10.5
				C307.2,91.4,303.3,86.6,298.4,86.6z"/>
			<path class="st0" d="M298.4,131H185.9c-4.9,0-8.9,4.7-8.9,10.5c0,5.8,4,10.5,8.9,10.5h112.5c4.9,0,8.9-4.7,8.9-10.5
				C307.2,135.7,303.3,131,298.4,131z"/>
			<path class="st0" d="M245,175.3h-59.1c-4.9,0-8.9,4.7-8.9,10.5c0,5.8,4,10.5,8.9,10.5H245c4.9,0,8.9-4.7,8.9-10.5
				C253.9,180,249.9,175.3,245,175.3z"/>
		</g>
	</g>
</g>
</svg>
